REM MD5 75e292f0c9d814415a8c87758df662fa
FILE "Re-Volt (Europe) (En,Fr,De,Es,It).bin" BINARY
  TRACK 01 MODE2/2352
    INDEX 01 00:00:00
  TRACK 02 AUDIO
    INDEX 00 04:38:04
    INDEX 01 04:40:04
  TRACK 03 AUDIO
    INDEX 00 53:03:07
    INDEX 01 53:05:07
REM LEADOUT 56:05:32
